<svg xmlns="http://www.w3.org/2000/svg" width="69" height="26" viewBox="0 0 69 26" fill="none">
    <path d="M55.4184 25.2701C57.8868 26.2731 60.6907 25.0565 61.6794 22.5512L67.7741 7.10731C68.7628 4.60341 67.5634 1.76066 65.0936 0.75774C62.6252 -0.245182 59.8227 0.971389 58.834 3.47529L52.7379 18.9206C51.7492 21.4245 52.9499 24.2672 55.4184 25.2701Z" fill="#FD6B28"/>
    <path d="M12.6924 25.2706C10.2239 26.2735 7.42009 25.057 6.43137 22.5517L0.34608 7.1078C-0.642646 4.6039 0.558045 1.76115 3.0265 0.758229C5.49496 -0.244693 8.29747 0.971877 9.2862 3.47578L15.3728 18.9211C16.3602 21.425 15.1609 24.2677 12.6924 25.2706Z" fill="#E7CEB7"/>
    <path d="M47.5969 25.2701C45.1271 26.2731 42.3246 25.0565 41.3359 22.5512L35.2506 7.10731C34.2619 4.60341 35.4626 1.76066 37.931 0.75774C40.3995 -0.245182 43.2034 0.971389 44.1907 3.47529L50.2774 18.9206C51.2648 21.4245 50.0654 24.2672 47.5969 25.2701Z" fill="#9D2B2E"/>
    <path d="M20.5136 25.2701C22.982 26.2731 25.7859 25.0565 26.7746 22.5512L32.8693 7.10731C33.858 4.60341 32.6587 1.76066 30.1902 0.75774C27.7204 -0.245182 24.9179 0.971389 23.9292 3.47529L17.8331 18.9206C16.8444 21.4245 18.0451 24.2672 20.5136 25.2701Z" fill="#115E67"/>
</svg>
